<svg xmlns="http://www.w3.org/2000/svg" width="348" height="146" fill="none" viewBox="0 0 348 146"><path d="M114.306 32v2.118L79.153 72.94l35.153 38.822v2.119H96.234L65.6 80.563H47.246v33.318H32V32h15.246v33.318H65.6L96.235 32h18.071Zm111.601 0-45.177 81.881h-15.246L120.307 32h17.646l35.154 64.66L208.4 32h17.507Zm89.286 18.354v63.527h-15.245V50.354c0-1.693-1.411-3.104-3.104-3.104h-46.588c-1.693 0-3.104 1.411-3.104 3.104v63.527h-15.246V32h64.942a18.316 18.316 0 0 1 18.355 18.354h-.01Z" fill="#000"/></svg>
